<svg width="24" height="24" xmlns="http://www.w3.org/2000/svg"><path d="M22 6.797c-.458.729-1.068 1.38-1.83 1.953v.469c0 2.734-.96 5.215-2.88 7.441C15.37 18.887 12.822 20 9.644 20 7.61 20 5.73 19.427 4 18.281c.407.052.7.078.877.078 1.704 0 3.229-.546 4.576-1.64a3.657 3.657 0 0 1-2.135-.762 3.577 3.577 0 0 1-1.297-1.855c.305.052.534.078.687.078.254 0 .584-.052.991-.157-.839-.182-1.544-.618-2.116-1.308a3.653 3.653 0 0 1-.858-2.402v-.04c.559.313 1.118.47 1.678.47-1.094-.73-1.64-1.785-1.64-3.165 0-.65.165-1.276.495-1.875 1.958 2.474 4.488 3.79 7.59 3.945-.051-.182-.077-.468-.077-.859 0-1.068.356-1.966 1.068-2.695C14.551 5.364 15.428 5 16.47 5c1.043 0 1.933.404 2.67 1.21.763-.13 1.55-.442 2.364-.937-.254.912-.8 1.615-1.64 2.11A6.182 6.182 0 0 0 22 6.797Z" fill="#55acee" fill-rule="evenodd"/></svg>