<svg xmlns="http://www.w3.org/2000/svg" width="19" height="20" fill="none"><path fill="#B7AC96" d="M12.333 5a.833.833 0 0 1 0 1.667H5.667a.833.833 0 0 1 0-1.667h6.666Zm6.423 14.756a.833.833 0 0 1-1.178 0l-2.006-2.006a3.714 3.714 0 0 1-4.072-.049 3.75 3.75 0 1 1 5.833-3.118 3.715 3.715 0 0 1-.583 1.989l2.006 2.006a.834.834 0 0 1 0 1.178Zm-5.173-3.09a2.084 2.084 0 1 0 0-4.166 2.084 2.084 0 0 0 0 4.167Zm-3.75 1.667h-5a2.5 2.5 0 0 1-2.5-2.5V4.167a2.5 2.5 0 0 1 2.5-2.5h10a.833.833 0 0 1 .834.833v6.667a.833.833 0 1 0 1.666 0V2.5a2.5 2.5 0 0 0-2.5-2.5h-10A4.172 4.172 0 0 0 .667 4.167v11.666A4.172 4.172 0 0 0 4.833 20h5a.833.833 0 0 0 0-1.667Z"/></svg>