<svg width="17" height="17" fill="none" xmlns="http://www.w3.org/2000/svg"><path d="M8.5 0A8.5 8.5 0 1 0 17 8.5 8.509 8.509 0 0 0 8.5 0Zm6.132 4.958h-2.285a13.939 13.939 0 0 0-2.005-3.3 7.112 7.112 0 0 1 4.29 3.3ZM11.688 8.5a7.231 7.231 0 0 1-.336 2.125H5.648A7.231 7.231 0 0 1 5.313 8.5a7.231 7.231 0 0 1 .335-2.125h5.704c.217.688.33 1.404.335 2.125Zm-5.473 3.542h4.57a13.858 13.858 0 0 1-2.285 3.25 13.857 13.857 0 0 1-2.285-3.25Zm0-7.084A13.856 13.856 0 0 1 8.5 1.708a13.858 13.858 0 0 1 2.285 3.25h-4.57Zm.443-3.3a13.954 13.954 0 0 0-2.005 3.3H2.368a7.112 7.112 0 0 1 4.29-3.3ZM1.742 6.376h2.431a8.27 8.27 0 0 0 0 4.25h-2.43a7.093 7.093 0 0 1 0-4.25Zm.626 5.667h2.285a13.938 13.938 0 0 0 2.005 3.3 7.112 7.112 0 0 1-4.29-3.3Zm7.974 3.3a13.958 13.958 0 0 0 2.005-3.3h2.285a7.112 7.112 0 0 1-4.29 3.3Zm4.915-4.717h-2.43a8.27 8.27 0 0 0 0-4.25h2.43a7.093 7.093 0 0 1 0 4.25Z" fill="#9F937F"/></svg>